<?xml version="1.0" encoding="utf-8"?>
<!-- Generator: Adobe Illustrator 21.0.0, SVG Export Plug-In . SVG Version: 6.00 Build 0)  -->
<svg version="1.1" id="Layer_2" xmlns="http://www.w3.org/2000/svg" xmlns:xlink="http://www.w3.org/1999/xlink" x="0px" y="0px"
	 viewBox="0 0 100 100" style="enable-background:new 0 0 100 100;" xml:space="preserve">
<g>
	<path d="M50,91.5C50,91.5,50,91.5,50,91.5c-0.8,0-1.6-0.3-2.2-0.9L8.5,51.1c-4.9-4.8-7.5-11.6-7.3-18.7c0.4-7.1,3.7-13.8,9.1-18.4
		c4.5-3.6,9.9-5.5,15.6-5.5c6.9,0,13.7,2.8,18.6,7.7l5.5,5.5l5.5-5.4c9.6-9.6,24.3-10.5,34.2-2c5.4,4.3,8.7,10.8,9.1,17.9
		c0.4,7.1-2.3,14.1-7.3,19.1L52.1,90.7C51.6,91.2,50.8,91.5,50,91.5z M48.6,87.1C48.6,87.1,48.6,87.1,48.6,87.1L48.6,87.1z
		 M25.9,13.5c-4.6,0-8.9,1.5-12.5,4.4c-4.3,3.7-7,9-7.3,14.7C6,38.3,8.1,43.7,12,47.5l38,38.2l38-38c4-4,6.1-9.7,5.8-15.3
		c-0.3-5.6-2.9-10.8-7.3-14.3c-7.9-6.8-19.7-6.1-27.5,1.7l-9,8.9l-9-9C37.1,15.7,31.5,13.5,25.9,13.5z"/>
</g>
</svg>
