<svg xmlns="http://www.w3.org/2000/svg" viewBox="0 0 1000 1000">
  <g>
    <path
      d="M500.1,596.1c-78.3,0-151.9-30.5-207.2-85.8C237.5,454.9,207,381.4,207,303.1c0-78.3,30.5-151.9,85.8-207.2C348.2,40.5,421.8,10,500.1,10c78.3,0,151.9,30.5,207.2,85.8c55.4,55.4,85.8,128.9,85.8,207.2c0,78.3-30.5,151.9-85.8,207.2C651.9,565.7,578.3,596.1,500.1,596.1z M500.1,75.3c-125.6,0-227.7,102.2-227.7,227.7c0,125.6,102.2,227.7,227.7,227.7c125.6,0,227.7-102.2,227.7-227.7C727.8,177.5,625.6,75.3,500.1,75.3z"
      stroke="#fec107"
      strokeWidth="10"
      fill="#fec107"
    />
    <path
      d="M891.4,957.1c0,18.2,14.7,32.9,32.9,32.9c18.2,0,32.9-14.7,32.9-32.9s-14.7-32.9-32.9-32.9C906.2,924.1,891.4,938.9,891.4,957.1z"
      fill="#fec107"
    />
    <path
      d="M42.6,956.9c0,18.3,14.8,33.1,33.1,33.1c18.3,0,33.1-14.8,33.1-33.1s-14.8-33.1-33.1-33.1C57.4,923.9,42.6,938.7,42.6,956.9z"
      fill="#fec107"
    />
    <path
      d="M500.1,597.2c205,0,374.7,158.3,391.3,359.1h66.1c-3.5-50.4-15.2-99.4-34.9-146c-23.1-54.6-56.2-103.6-98.2-145.7c-42.1-42.1-91.1-75.2-145.7-98.3c-56.6-23.9-116.6-36-178.5-36c-61.9,0-121.9,12.1-178.5,36c-54.6,23.1-103.6,56.2-145.7,98.3c-42.1,42.1-75.2,91.1-98.3,145.7c-19.7,46.6-31.4,95.6-34.9,146h66.1C125.3,755.5,295.1,597.2,500.1,597.2z"
      fill="#fec107"
    />
  </g>
</svg>
